<?xml version="1.0" encoding="utf-8"?>
<!-- Generator: Adobe Illustrator 24.2.3, SVG Export Plug-In . SVG Version: 6.00 Build 0)  -->
<svg version="1.1" id="Layer_1" xmlns="http://www.w3.org/2000/svg" xmlns:xlink="http://www.w3.org/1999/xlink" x="0px" y="0px"
	 viewBox="0 0 300 300" style="enable-background:new 0 0 300 300;" xml:space="preserve">
<style type="text/css">
	.st0{fill:#E72729;}
</style>
<path class="st0" d="M209.18,98.99l-8.46,29.36v21.34l-23.64-57.64c-0.66-1.62-2.13-2.78-3.86-3.04l-35.31-5.46
	c-2.44-0.38-4.79,1.08-5.53,3.43l-11.02,34.84v25.34L96.83,79.81c-0.62-1.71-2.13-2.95-3.93-3.23l-42.16-6.52
	c-3.71-0.57-6.7,2.99-5.5,6.54l50.78,150c0.69,2.03,2.59,3.4,4.74,3.4h33.99c2.14,0,4.05-1.37,4.74-3.39l22.13-65.3v24.35
	l15.08,41.07c0.72,1.97,2.6,3.28,4.69,3.28h36.38c2.26,0,4.24-1.51,4.83-3.69l32.25-119.05c0.78-2.88-1.12-5.79-4.06-6.25
	l-36.04-5.57C212.27,95.05,209.88,96.57,209.18,98.99z"/>
<g>
	<path class="st0" d="M230.92,221.74h-2.02v-1.03h5.21v1.03h-2.02v5.64h-1.17V221.74z"/>
	<path class="st0" d="M240.86,222.33l-2.05,5.05h-0.5l-2.04-5.05v5.05h-1.17v-6.67h1.65l1.81,4.49l1.82-4.49h1.65v6.67h-1.17V222.33
		z"/>
</g>
</svg>
